<?xml version="1.0" encoding="UTF-8"?>
<svg width="337px" height="297px" viewBox="0 0 337 297" version="1.1" xmlns="http://www.w3.org/2000/svg" xmlns:xlink="http://www.w3.org/1999/xlink">
    <!-- Generator: Sketch 55 (78076) - https://sketchapp.com -->
    <title>Group 5</title>
    <desc>Created with Sketch.</desc>
    <g id="Social-Content" stroke="none" stroke-width="1" fill="none" fill-rule="evenodd">
        <g id="Artboard-1" transform="translate(-144.000000, -275.000000)">
            <g id="Group-5" transform="translate(0.000000, -0.110000)">
                <g id="Group-3" transform="translate(144.979400, 275.084400)">
                    <polygon id="Fill-2" fill="#A8A9A5" points="240.1243 139.1438 240.7833 139.1438 240.7833 123.0738 240.1243 122.9088"></polygon>
                    <path d="M211.4003,48.8671 C196.1783,35.4671 176.2313,27.3131 154.4063,27.3131 C106.7773,27.3131 68.0293,66.0621 68.0293,113.6911 L68.0293,139.1431 L68.6873,139.1431 L68.6873,113.6911 C68.6873,66.4251 107.1403,27.9711 154.4063,27.9711 C176.1603,27.9711 196.0353,36.1321 211.1663,49.5341 L211.4003,48.8671 Z" id="Fill-3" fill="#A8A9A5"></path>
                    <polygon id="Fill-5" fill="#A8A9A5" points="59.0276 141.7256 96.3486 141.7256 96.3486 138.3896 59.0276 138.3896"></polygon>
                    <polygon id="Fill-7" fill="#A8A9A5" points="212.4626 141.7256 249.7836 141.7256 249.7836 138.3896 212.4626 138.3896"></polygon>
                    <polygon id="Fill-8" fill="#A8A9A5" points="212.4626 165.3036 249.7836 165.3036 249.7836 162.0966 212.4626 162.0966"></polygon>
                    <polygon id="Fill-9" fill="#A8A9A5" points="59.0276 165.3036 96.3486 165.3036 96.3486 162.0966 59.0276 162.0966"></polygon>
                    <path d="M199.5087,294.3872 L195.5587,294.3872 L195.5587,112.2082 C195.5587,89.5162 177.0977,71.0542 154.4057,71.0542 C131.7137,71.0542 113.2517,89.5162 113.2517,112.2082 L113.2517,294.3872 L109.3017,294.3872 L109.3017,112.2082 C109.3017,87.3382 129.5347,67.1052 154.4057,67.1052 C179.2757,67.1052 199.5087,87.3382 199.5087,112.2082 L199.5087,294.3872 Z" id="Fill-22" fill="#A8A9A5"></path>
                    <polygon id="Fill-23" fill="#A8A9A5" points="96.0196 294.3876 96.6776 294.3876 96.6776 139.1436 96.0196 139.1436"></polygon>
                    <polygon id="Fill-24" fill="#A8A9A5" points="212.1336 294.3876 212.7916 294.3876 212.7916 139.1436 212.1336 139.1436"></polygon>
                    <path d="M112.2646,163.5396 L196.5466,163.5396 L196.5466,140.1306 L112.2646,140.1306 L112.2646,163.5396 Z M110.2906,165.5146 L198.5216,165.5146 L198.5216,138.1556 L110.2906,138.1556 L110.2906,165.5146 Z" id="Fill-25" fill="#A8A9A5"></path>
                    <path d="M112.5936,293.0706 L196.2166,293.0706 L196.2166,165.8436 L112.5936,165.8436 L112.5936,293.0706 Z M109.9606,295.7046 L198.8506,295.7046 L198.8506,163.2106 L109.9606,163.2106 L109.9606,295.7046 Z" id="Fill-26" fill="#A8A9A5"></path>
                    <path d="M119.0706,286.5946 L189.7416,286.5946 L189.7416,172.3216 L119.0706,172.3216 L119.0706,286.5946 Z M118.4126,287.2526 L190.3996,287.2526 L190.3996,171.6626 L118.4126,171.6626 L118.4126,287.2526 Z" id="Fill-27" fill="#A8A9A5"></path>
                    <polygon id="Fill-28" fill="#A8A9A5" points="59.0276 294.7176 96.3486 294.7176 96.3486 294.0586 59.0276 294.0586"></polygon>
                    <polygon id="Fill-29" fill="#A8A9A5" points="59.0276 164.2336 96.3486 164.2336 96.3486 163.1646 59.0276 163.1646"></polygon>
                    <polygon id="Fill-30" fill="#A8A9A5" points="212.4626 294.7176 249.7836 294.7176 249.7836 294.0586 212.4626 294.0586"></polygon>
                    <polygon id="Fill-31" fill="#A8A9A5" points="59.0276 278.2146 96.3486 278.2146 96.3486 277.5566 59.0276 277.5566"></polygon>
                    <polygon id="Stroke-32" stroke="#A8A9A5" stroke-width="0.5" points="59.0276 278.2146 96.3486 278.2146 96.3486 277.5566 59.0276 277.5566"></polygon>
                    <polygon id="Fill-33" fill="#A8A9A5" points="59.0276 259.3216 96.3486 259.3216 96.3486 258.6636 59.0276 258.6636"></polygon>
                    <polygon id="Stroke-34" stroke="#A8A9A5" stroke-width="0.5" points="59.0276 259.3216 96.3486 259.3216 96.3486 258.6636 59.0276 258.6636"></polygon>
                    <polygon id="Fill-35" fill="#A8A9A5" points="59.0276 240.4286 96.3486 240.4286 96.3486 239.7706 59.0276 239.7706"></polygon>
                    <polygon id="Stroke-36" stroke="#A8A9A5" stroke-width="0.5" points="59.0276 240.4286 96.3486 240.4286 96.3486 239.7706 59.0276 239.7706"></polygon>
                    <polygon id="Fill-37" fill="#A8A9A5" points="59.0276 221.5356 96.3486 221.5356 96.3486 220.8776 59.0276 220.8776"></polygon>
                    <polygon id="Stroke-38" stroke="#A8A9A5" stroke-width="0.5" points="59.0276 221.5356 96.3486 221.5356 96.3486 220.8776 59.0276 220.8776"></polygon>
                    <polygon id="Fill-39" fill="#A8A9A5" points="59.0276 202.6426 96.3486 202.6426 96.3486 201.9846 59.0276 201.9846"></polygon>
                    <polygon id="Stroke-40" stroke="#A8A9A5" stroke-width="0.5" points="59.0276 202.6426 96.3486 202.6426 96.3486 201.9846 59.0276 201.9846"></polygon>
                    <polygon id="Fill-41" fill="#A8A9A5" points="59.0276 183.7496 96.3486 183.7496 96.3486 183.0916 59.0276 183.0916"></polygon>
                    <polygon id="Stroke-42" stroke="#A8A9A5" stroke-width="0.5" points="59.0276 183.7496 96.3486 183.7496 96.3486 183.0916 59.0276 183.0916"></polygon>
                    <polygon id="Fill-43" fill="#A8A9A5" points="66.2696 294.3876 66.9286 294.3876 66.9286 277.8856 66.2696 277.8856"></polygon>
                    <polygon id="Stroke-44" stroke="#A8A9A5" stroke-width="0.5" points="66.2696 294.3876 66.9286 294.3876 66.9286 277.8856 66.2696 277.8856"></polygon>
                    <polygon id="Fill-45" fill="#A8A9A5" points="77.3596 258.9926 78.0176 258.9926 78.0176 240.0986 77.3596 240.0986"></polygon>
                    <polygon id="Stroke-46" stroke="#A8A9A5" stroke-width="0.5" points="77.3596 258.9926 78.0176 258.9926 78.0176 240.0986 77.3596 240.0986"></polygon>
                    <polygon id="Fill-47" fill="#A8A9A5" points="88.5556 240.0986 89.2136 240.0986 89.2136 221.2056 88.5556 221.2056"></polygon>
                    <polygon id="Stroke-48" stroke="#A8A9A5" stroke-width="0.5" points="88.5556 240.0986 89.2136 240.0986 89.2136 221.2056 88.5556 221.2056"></polygon>
                    <polygon id="Fill-49" fill="#A8A9A5" points="66.2696 221.2066 66.9286 221.2066 66.9286 202.3136 66.2696 202.3136"></polygon>
                    <polygon id="Stroke-50" stroke="#A8A9A5" stroke-width="0.5" points="66.2696 221.2066 66.9286 221.2066 66.9286 202.3136 66.2696 202.3136"></polygon>
                    <polygon id="Fill-51" fill="#A8A9A5" points="77.3596 183.4206 78.0176 183.4206 78.0176 164.5276 77.3596 164.5276"></polygon>
                    <polygon id="Stroke-52" stroke="#A8A9A5" stroke-width="0.5" points="77.3596 183.4206 78.0176 183.4206 78.0176 164.5276 77.3596 164.5276"></polygon>
                    <polygon id="Fill-53" fill="#A8A9A5" points="212.4626 278.2146 249.7836 278.2146 249.7836 277.5566 212.4626 277.5566"></polygon>
                    <polygon id="Stroke-54" stroke="#A8A9A5" stroke-width="0.5" points="212.4626 278.2146 249.7836 278.2146 249.7836 277.5566 212.4626 277.5566"></polygon>
                    <polygon id="Fill-55" fill="#A8A9A5" points="212.4626 259.3216 249.7836 259.3216 249.7836 258.6636 212.4626 258.6636"></polygon>
                    <polygon id="Stroke-56" stroke="#A8A9A5" stroke-width="0.5" points="212.4626 259.3216 249.7836 259.3216 249.7836 258.6636 212.4626 258.6636"></polygon>
                    <polygon id="Fill-57" fill="#A8A9A5" points="212.4626 240.4286 249.7836 240.4286 249.7836 239.7706 212.4626 239.7706"></polygon>
                    <polygon id="Stroke-58" stroke="#A8A9A5" stroke-width="0.5" points="212.4626 240.4286 249.7836 240.4286 249.7836 239.7706 212.4626 239.7706"></polygon>
                    <polygon id="Fill-59" fill="#A8A9A5" points="212.4626 221.5356 249.7836 221.5356 249.7836 220.8776 212.4626 220.8776"></polygon>
                    <polygon id="Stroke-60" stroke="#A8A9A5" stroke-width="0.5" points="212.4626 221.5356 249.7836 221.5356 249.7836 220.8776 212.4626 220.8776"></polygon>
                    <polygon id="Fill-61" fill="#A8A9A5" points="212.4626 202.6426 249.7836 202.6426 249.7836 201.9846 212.4626 201.9846"></polygon>
                    <polygon id="Stroke-62" stroke="#A8A9A5" stroke-width="0.5" points="212.4626 202.6426 249.7836 202.6426 249.7836 201.9846 212.4626 201.9846"></polygon>
                    <polygon id="Fill-63" fill="#A8A9A5" points="212.4626 183.7496 249.7836 183.7496 249.7836 183.0916 212.4626 183.0916"></polygon>
                    <polygon id="Stroke-64" stroke="#A8A9A5" stroke-width="0.5" points="212.4626 183.7496 249.7836 183.7496 249.7836 183.0916 212.4626 183.0916"></polygon>
                    <polygon id="Fill-65" fill="#A8A9A5" points="241.8826 294.3876 242.5406 294.3876 242.5406 277.8856 241.8826 277.8856"></polygon>
                    <polygon id="Stroke-66" stroke="#A8A9A5" stroke-width="0.5" points="241.8826 294.3876 242.5406 294.3876 242.5406 277.8856 241.8826 277.8856"></polygon>
                    <polygon id="Fill-67" fill="#A8A9A5" points="230.7936 258.9926 231.4516 258.9926 231.4516 240.0986 230.7936 240.0986"></polygon>
                    <polygon id="Stroke-68" stroke="#A8A9A5" stroke-width="0.5" points="230.7936 258.9926 231.4516 258.9926 231.4516 240.0986 230.7936 240.0986"></polygon>
                    <polygon id="Fill-69" fill="#A8A9A5" points="230.7936 183.4206 231.4516 183.4206 231.4516 164.5276 230.7936 164.5276"></polygon>
                    <polygon id="Stroke-70" stroke="#A8A9A5" stroke-width="0.5" points="230.7936 183.4206 231.4516 183.4206 231.4516 164.5276 230.7936 164.5276"></polygon>
                    <polygon id="Fill-71" fill="#A8A9A5" points="152.4306 294.3876 156.3806 294.3876 156.3806 164.5286 152.4306 164.5286"></polygon>
                    <path d="M146.2186,242.9077 C142.1776,240.1767 139.7646,235.6377 139.7646,230.7677 C139.7646,225.8967 142.1776,221.3587 146.2196,218.6287 L147.6936,220.8107 C144.3776,223.0517 142.3986,226.7727 142.3986,230.7677 C142.3986,234.7627 144.3776,238.4847 147.6936,240.7247 L146.2186,242.9077 Z" id="Fill-72" fill="#A8A9A5"></path>
                    <path d="M162.5927,242.9077 L161.1177,240.7247 C164.4337,238.4847 166.4127,234.7627 166.4127,230.7677 C166.4127,226.7727 164.4337,223.0507 161.1187,220.8107 L162.5917,218.6287 C166.6337,221.3587 169.0457,225.8967 169.0457,230.7677 C169.0457,235.6387 166.6337,240.1777 162.5927,242.9077" id="Fill-73" fill="#A8A9A5"></path>
                    <path d="M214.2411,37.3637 C197.7451,24.4037 176.9621,16.6667 154.4061,16.6667 C100.9061,16.6667 57.3821,60.1907 57.3821,113.6907 L57.3821,294.3867 L60.6731,294.3867 L60.6731,113.6907 C60.6731,62.0067 102.7211,19.9577 154.4061,19.9577 C176.8801,19.9577 197.5281,27.9107 213.6931,41.1467 C213.9031,39.9057 214.0951,38.5177 214.2411,37.3637" id="Fill-74" fill="#A8A9A5"></path>
                    <polygon id="Fill-75" fill="#A8A9A5" points="248.1386 124.9375 248.1386 294.3875 251.4296 294.3875 251.4296 125.8665"></polygon>
                    <path d="M200.2079,77.5458 C189.5059,64.0128 172.9589,55.3038 154.4059,55.3038 C122.2119,55.3038 96.0199,81.4968 96.0199,113.6908 L96.0199,139.1438 L96.6779,139.1438 L96.6779,113.6908 C96.6779,81.8588 122.5739,55.9628 154.4059,55.9628 C172.8649,55.9628 189.3149,64.6818 199.8909,78.2068 C199.9929,77.9918 200.0979,77.7748 200.2079,77.5458" id="Fill-76" fill="#A8A9A5"></path>
                    <path d="M212.1239,113.3164 C212.1249,113.4414 212.1339,113.5654 212.1339,113.6914 L212.1339,139.1434 L212.7919,139.1434 L212.7919,113.7344 C212.5589,113.5954 212.3369,113.4554 212.1239,113.3164" id="Fill-77" fill="#A8A9A5"></path>
                    <path d="M206.9315,12.913 C208.6185,14.594 211.3385,17.739 213.4525,22.256 C216.4325,28.624 218.7155,39.03 212.6695,52.434 C201.7425,76.666 195.5565,92.197 205.6625,105.555 C212.7515,114.926 227.7495,118.1 240.9825,120.9 C251.9875,123.229 262.4365,125.44 267.6665,130.957 C272.8965,125.44 283.3465,123.229 294.3515,120.9 C307.5835,118.1 322.5805,114.926 329.6705,105.555 C339.7765,92.197 333.5915,76.666 322.6625,52.434 C316.6185,39.03 318.9015,28.624 321.8805,22.256 C323.9945,17.739 326.7145,14.594 328.4025,12.913 L314.1575,2.229 C304.0235,5.952 295.7145,7.264 289.0365,7.264 C276.9825,7.266 270.2455,2.988 267.6665,0.89 C263.6575,4.15 249.6105,12.674 221.1755,2.229 L206.9315,12.913 Z" id="Stroke-78" stroke="#57B897"></path>
                    <path d="M220.8671,43.6542 L314.4671,43.6542 C312.4791,33.3182 314.8511,25.1492 317.2231,20.0772 C318.2591,17.8662 319.5131,15.7412 320.9541,13.7532 L313.2721,7.9922 C304.6501,10.9022 296.5251,12.3782 289.1191,12.3782 L289.1191,11.8272 L289.1191,12.3782 L289.1161,12.3782 C278.7971,12.3782 271.7941,9.5532 267.6661,7.1082 C263.5371,9.5532 256.5321,12.3782 246.2151,12.3782 C238.8091,12.3782 230.6841,10.9022 222.0611,7.9922 L214.3791,13.7542 C215.8191,15.7392 217.0731,17.8632 218.1081,20.0772 C220.4821,25.1492 222.8531,33.3172 220.8671,43.6542 L220.8671,43.6542 Z M315.8161,44.7552 L219.5171,44.7552 L219.6561,44.0922 C221.8151,33.7382 219.4641,25.5712 217.1111,20.5442 C216.0301,18.2332 214.7041,16.0212 213.1711,13.9702 L212.8421,13.5302 L221.8651,6.7622 L222.1401,6.8562 C230.7521,9.7902 238.8511,11.2772 246.2151,11.2772 C256.5191,11.2772 263.4121,8.4052 267.3811,5.9952 L267.6661,5.8222 L267.9521,5.9962 C271.9191,8.4052 278.8111,11.2772 289.1161,11.2772 L289.1191,11.2772 C296.4831,11.2772 304.5831,9.7892 313.1931,6.8562 L313.4691,6.7622 L322.4911,13.5292 L322.1621,13.9702 C320.6281,16.0242 319.3021,18.2362 318.2211,20.5442 C315.8691,25.5722 313.5181,33.7392 315.6781,44.0922 L315.8161,44.7552 Z" id="Fill-79" fill="#57B897"></path>
                    <path d="M241.4423,115.7426 L293.8903,115.7426 C305.3793,113.3106 319.6523,110.2776 325.5703,102.4536 C333.5183,91.9476 329.3603,79.7876 317.9763,54.5476 C317.4673,53.4186 316.9923,52.2566 316.5603,51.0876 L218.7733,51.0876 C218.3383,52.2616 217.8633,53.4236 217.3563,54.5476 C205.9733,79.7876 201.8143,91.9476 209.7633,102.4536 C215.6813,110.2776 229.9553,113.3106 241.4423,115.7426 L241.4423,115.7426 Z M294.0053,116.8436 L241.2713,116.8316 C229.5933,114.3596 215.0613,111.2826 208.8843,103.1176 C200.5803,92.1396 204.7833,79.7496 216.3533,54.0946 C216.9003,52.8806 217.4113,51.6206 217.8703,50.3496 L218.0023,49.9866 L317.3323,49.9866 L317.4633,50.3496 C317.9203,51.6146 318.4303,52.8746 318.9803,54.0946 C330.5493,79.7496 334.7533,92.1396 326.4493,103.1176 C320.2713,111.2826 305.7393,114.3596 294.0613,116.8316 L294.0053,116.8436 Z" id="Fill-80" fill="#57B897"></path>
                    <g id="Group-4" opacity="0.215797061" transform="translate(207.498900, 50.108300)" stroke="#57B897" stroke-width="0.5">
                        <path d="M0.5,26.6338 L0.5,51.6018" id="Stroke-81" opacity="0.605585007"></path>
                        <path d="M7.3584,8.8277 L7.3584,57.8877" id="Stroke-82" opacity="0.605585007"></path>
                        <path d="M14.8545,-1.13686838e-13 L14.8545,61.03" id="Stroke-83" opacity="0.605585007"></path>
                        <path d="M22.3506,5.68434189e-14 L22.3506,63.208" id="Stroke-84" opacity="0.605585007"></path>
                        <path d="M29.8467,0 L29.8467,65.634" id="Stroke-85" opacity="0.605585007"></path>
                        <path d="M37.3418,-1.13686838e-13 L37.3418,66.24" id="Stroke-86" opacity="0.605585007"></path>
                        <path d="M44.8379,-1.13686838e-13 L44.8379,66.24" id="Stroke-87" opacity="0.605585007"></path>
                        <path d="M52.334,-1.13686838e-13 L52.334,66.24" id="Stroke-88" opacity="0.605585007"></path>
                        <path d="M59.8291,-1.13686838e-13 L59.8291,66.24" id="Stroke-89" opacity="0.605585007"></path>
                        <path d="M67.3252,-1.13686838e-13 L67.3252,66.24" id="Stroke-90" opacity="0.605585007"></path>
                        <path d="M74.8213,-1.13686838e-13 L74.8213,66.24" id="Stroke-91" opacity="0.605585007"></path>
                        <path d="M82.3174,-1.13686838e-13 L82.3174,66.24" id="Stroke-92" opacity="0.605585007"></path>
                        <path d="M89.8125,0 L89.8125,65.634" id="Stroke-93" opacity="0.605585007"></path>
                        <path d="M97.3086,2.48689958e-14 L97.3086,63.795" id="Stroke-94" opacity="0.605585007"></path>
                        <path d="M104.8047,-6.03961325e-14 L104.8047,61.39" id="Stroke-95" opacity="0.605585007"></path>
                        <path d="M112.2998,7.2007 L112.2998,57.9887" id="Stroke-96" opacity="0.605585007"></path>
                        <path d="M119.7959,25.4166 L119.7959,50.8336" id="Stroke-97" opacity="0.605585007"></path>
                    </g>
                    <path d="M235.2011,31.5595 L241.6691,34.9595 L240.4331,27.7585 L245.6661,22.6575 L238.4341,21.6065 L235.2011,15.0545 L231.9681,21.6065 L224.7361,22.6575 L229.9691,27.7585 L228.7331,34.9595 L235.2011,31.5595 Z M243.1321,36.9725 L235.2011,32.8035 L227.2701,36.9725 L228.7861,28.1425 L222.3691,21.8885 L231.2361,20.6005 L235.2011,12.5665 L239.1661,20.6005 L248.0331,21.8885 L241.6161,28.1425 L243.1321,36.9725 Z" id="Fill-98" fill="#57B897"></path>
                    <path d="M267.6669,31.5595 L274.1349,34.9595 L272.8989,27.7585 L278.1319,22.6575 L270.8999,21.6065 L267.6669,15.0545 L264.4329,21.6065 L257.2009,22.6575 L262.4339,27.7585 L261.1989,34.9595 L267.6669,31.5595 Z M259.7369,36.9725 L261.2509,28.1425 L254.8359,21.8885 L263.7019,20.6005 L267.6669,12.5665 L271.6319,20.6005 L280.4979,21.8885 L274.0819,28.1425 L275.5969,36.9725 L267.6669,32.8035 L259.7369,36.9725 Z" id="Fill-99" fill="#57B897"></path>
                    <path d="M289.6669,22.6577 L294.8989,27.7587 L293.6649,34.9597 L300.1329,31.5597 L306.5999,34.9597 L305.3649,27.7587 L310.5979,22.6577 L303.3659,21.6067 L300.1329,15.0537 L296.8979,21.6067 L289.6669,22.6577 Z M308.0629,36.9727 L300.1329,32.8037 L292.2019,36.9727 L293.7169,28.1427 L287.3019,21.8887 L296.1669,20.6007 L300.1329,12.5667 L304.0979,20.6007 L312.9629,21.8887 L306.5479,28.1427 L308.0629,36.9727 Z" id="Fill-100" fill="#57B897"></path>
                    <path d="M42.0272,273.1889 L9.2902,273.1889" id="Stroke-119" stroke="#A8A9A5" stroke-width="0.5" stroke-linecap="round"></path>
                    <path d="M57.3817,273.1889 L47.3357,273.1889" id="Stroke-120" stroke="#A8A9A5" stroke-width="0.5" stroke-linecap="round"></path>
                    <path d="M6.414,253.6333 L0,253.6333" id="Stroke-121" stroke="#A8A9A5" stroke-width="0.5" stroke-linecap="round"></path>
                    <path d="M37.6034,253.6333 L10.8374,253.6333" id="Stroke-122" stroke="#A8A9A5" stroke-width="0.5" stroke-linecap="round"></path>
                    <path d="M57.3817,253.6333 L42.0277,253.6333" id="Stroke-123" stroke="#A8A9A5" stroke-width="0.5" stroke-linecap="round"></path>
                    <path d="M35.1698,234.0776 L16.9208,234.0776" id="Stroke-124" stroke="#A8A9A5" stroke-width="0.5" stroke-linecap="round"></path>
                    <polyline id="Stroke-125" stroke="#A8A9A5" stroke-width="0.5" stroke-linecap="round" points="57.3817 234.0776 35.1697 234.0776 35.1697 214.5226"></polyline>
                    <path d="M57.3817,214.5229 L1.5667,214.5229" id="Stroke-126" stroke="#A8A9A5" stroke-width="2"></path>
                    <path d="M21.5663,253.6333 L21.5663,273.1893" id="Stroke-127" stroke="#A8A9A5" stroke-width="0.5" stroke-linecap="round"></path>
                    <path d="M47.3358,253.6333 L47.3358,234.0773" id="Stroke-128" stroke="#A8A9A5" stroke-width="0.5" stroke-linecap="round"></path>
                    <path d="M266.869,273.1889 L299.606,273.1889" id="Stroke-129" stroke="#A8A9A5" stroke-width="0.5" stroke-linecap="round"></path>
                    <path d="M251.5145,273.1889 L261.5595,273.1889" id="Stroke-130" stroke="#A8A9A5" stroke-width="0.5" stroke-linecap="round"></path>
                    <path d="M302.4813,253.6333 L308.8963,253.6333" id="Stroke-131" stroke="#A8A9A5" stroke-width="0.5" stroke-linecap="round"></path>
                    <path d="M271.2928,253.6333 L298.0578,253.6333" id="Stroke-132" stroke="#A8A9A5" stroke-width="0.5" stroke-linecap="round"></path>
                    <path d="M251.5145,253.6333 L266.8685,253.6333" id="Stroke-133" stroke="#A8A9A5" stroke-width="0.5" stroke-linecap="round"></path>
                    <path d="M273.7255,234.0776 L291.9745,234.0776" id="Stroke-134" stroke="#A8A9A5" stroke-width="0.5" stroke-linecap="round"></path>
                    <polyline id="Stroke-135" stroke="#A8A9A5" stroke-width="0.5" stroke-linecap="round" points="251.5145 234.0776 273.7255 234.0776 273.7255 214.5226"></polyline>
                    <path d="M251.5145,214.5229 L303.7495,214.5229" id="Stroke-136" stroke="#A8A9A5" stroke-width="2"></path>
                    <path d="M57.3817,202.643 L1.5667,202.643" id="Stroke-137" stroke="#A8A9A5" stroke-width="2"></path>
                    <path d="M251.5145,202.643 L303.7495,202.643" id="Stroke-138" stroke="#A8A9A5" stroke-width="2"></path>
                    <path d="M287.329,253.6333 L287.329,273.1893" id="Stroke-139" stroke="#A8A9A5" stroke-width="0.5" stroke-linecap="round"></path>
                    <path d="M261.5594,253.6333 L261.5594,234.0773" id="Stroke-140" stroke="#A8A9A5" stroke-width="0.5" stroke-linecap="round"></path>
                    <path d="M1.5663,294.7172 L303.7503,294.7172" id="Stroke-141" stroke="#A8A9A5" stroke-width="4"></path>
                    <path d="M159.5458,109.7241 C158.7548,108.9621 157.8048,108.3871 156.6918,107.9961 L156.6918,118.3611 C158.0208,117.9721 159.0248,117.2901 159.7078,116.3151 C160.3898,115.3411 160.7318,114.2151 160.7318,112.9401 C160.7318,111.5571 160.3358,110.4861 159.5458,109.7241 L159.5458,109.7241 Z M155.7878,107.7311 C155.3358,107.5541 154.9028,107.4111 154.4858,107.3061 C154.0688,107.1991 153.6348,107.0931 153.1828,106.9861 L153.1828,118.6271 C153.3568,118.6631 153.5298,118.6801 153.7038,118.6801 L154.2768,118.6801 C154.5548,118.6801 154.8228,118.6721 155.0848,118.6541 C155.3448,118.6361 155.5788,118.6101 155.7878,118.5741 L155.7878,107.7311 Z M155.7878,91.6251 C155.6128,91.5901 155.4038,91.5631 155.1618,91.5451 C154.9188,91.5281 154.6758,91.5181 154.4328,91.5181 C154.2248,91.5181 154.0088,91.5281 153.7818,91.5451 C153.5568,91.5631 153.3568,91.5901 153.1828,91.6251 L153.1828,102.3091 C154.0518,102.5931 154.9188,102.8591 155.7878,103.1061 L155.7878,91.6251 Z M152.2788,91.7851 C151.0738,92.1391 150.1268,92.7501 149.4368,93.6181 C148.7448,94.4871 148.3998,95.5941 148.3998,96.9401 C148.3998,98.2871 148.7618,99.3591 149.4888,100.1561 C150.2148,100.9531 151.1458,101.5831 152.2788,102.0431 L152.2788,91.7851 Z M162.6558,116.5801 C161.1398,118.0161 159.1508,118.8921 156.6918,119.2121 L156.7448,126.8131 L155.7348,126.8131 L155.7878,119.3181 C155.5448,119.3531 155.3008,119.3711 155.0588,119.3711 L154.3298,119.3711 L153.1828,119.3711 L153.2358,126.8131 L152.2268,126.8131 L152.2788,119.2651 C149.7288,119.0881 147.6908,118.4501 146.1668,117.3511 C144.6438,116.2531 143.8808,114.8001 143.8808,112.9931 C143.8808,112.2481 144.1478,111.6021 144.6788,111.0531 C145.2098,110.5041 145.8298,110.2291 146.5388,110.2291 C147.1408,110.2291 147.6628,110.4071 148.1078,110.7601 C148.5498,111.1151 148.8428,111.5571 148.9838,112.0891 C148.8778,112.3731 148.7988,112.6471 148.7448,112.9131 C148.6918,113.1791 148.6648,113.5071 148.6648,113.8961 C148.6648,114.9591 148.9128,115.9251 149.4088,116.7931 C149.9048,117.6621 150.8618,118.2381 152.2788,118.5201 L152.2788,106.7211 C151.8898,106.6141 151.4908,106.4811 151.0838,106.3221 C150.6758,106.1621 150.3478,106.0481 150.1008,105.9761 C148.5058,105.3741 147.1678,104.4801 146.0868,103.2921 C145.0058,102.1051 144.4658,100.6431 144.4658,98.9071 C144.4658,97.7731 144.6698,96.7541 145.0768,95.8501 C145.4838,94.9471 146.0338,94.1591 146.7258,93.4851 C147.4158,92.8131 148.2398,92.2631 149.1958,91.8381 C150.1528,91.4121 151.1808,91.1111 152.2788,90.9341 L152.2268,84.6621 L153.2358,84.6621 L153.1828,90.8281 C153.3908,90.7931 153.5988,90.7741 153.8078,90.7741 L154.4848,90.7741 L155.1098,90.7741 C155.3528,90.7741 155.5778,90.7931 155.7878,90.8281 L155.7348,84.6621 L156.7448,84.6621 L156.6918,90.9341 C158.8168,91.2181 160.5978,91.8911 162.0328,92.9531 C163.4688,94.0171 164.1868,95.4171 164.1868,97.1531 C164.1868,97.8971 163.9388,98.5441 163.4418,99.0931 C162.9448,99.6431 162.3258,99.9171 161.5818,99.9171 C160.9788,99.9171 160.4738,99.7401 160.0668,99.3861 C159.6588,99.0321 159.3838,98.5881 159.2428,98.0571 C159.3498,97.7731 159.4298,97.4981 159.4828,97.2331 C159.5358,96.9671 159.5618,96.6401 159.5618,96.2491 C159.5618,95.2221 159.3398,94.3011 158.8978,93.4851 C158.4538,92.6701 157.7188,92.1031 156.6918,91.7851 L156.6918,103.3191 C157.0838,103.4611 157.4318,103.5841 157.7338,103.6911 C158.0378,103.7971 158.3858,103.9031 158.7768,104.0101 C160.7028,104.6131 162.2108,105.5431 163.2978,106.8001 C164.3868,108.0581 164.9308,109.5911 164.9308,111.3981 C164.9308,113.4181 164.1718,115.1451 162.6558,116.5801 L162.6558,116.5801 Z" id="Fill-142" fill="#A8A9A5"></path>
                    <g id="Group-6" transform="translate(227.020600, 55.025600)" font-family="Times-Roman, Times" font-size="24" font-weight="normal">
                        <text id="HAVEN" fill="#33373E">
                            <tspan x="0" y="24">HAVEN</tspan>
                        </text>
                        <text id="HAVEN" fill="#57B897">
                            <tspan x="0" y="23">HAVEN</tspan>
                        </text>
                    </g>
                    <g id="Group-6" transform="translate(238.020600, 79.025600)" font-family="Times-Roman, Times" font-size="24" font-weight="normal">
                        <text id="MINT" fill="#33373E">
                            <tspan x="0.337890625" y="24">MINT</tspan>
                        </text>
                        <text id="MINT" fill="#57B897">
                            <tspan x="0.337890625" y="23">MINT</tspan>
                        </text>
                    </g>
                </g>
                <g id="Group-143"></g>
            </g>
        </g>
    </g>
</svg>