<?xml version="1.0" encoding="UTF-8"?>
<svg width="275px" height="251px" viewBox="0 0 275 251" version="1.1" xmlns="http://www.w3.org/2000/svg" xmlns:xlink="http://www.w3.org/1999/xlink">
    <!-- Generator: Sketch 55 (78076) - https://sketchapp.com -->
    <title>Group 288</title>
    <desc>Created with Sketch.</desc>
    <defs>
        <polygon id="path-1" points="0 842 595.276 842 595.276 0.11 0 0.11"></polygon>
    </defs>
    <g id="Social-Content" stroke="none" stroke-width="1" fill="none" fill-rule="evenodd">
        <g id="Artboard-3" transform="translate(-143.000000, -317.000000)">
            <g id="Group-288" transform="translate(0.000000, -0.110000)">
                <path d="M379.2376,437.5253 C380.1116,432.1653 380.5656,426.6633 380.5656,421.0553 C380.5656,414.3073 379.9076,407.7133 378.6536,401.3343" id="Stroke-251" stroke="#A8A9A5" stroke-width="3"></path>
                <path d="M261.4808,521.1854 C267.1538,522.1674 272.9878,522.6794 278.9408,522.6794 C284.4368,522.6794 289.8308,522.2434 295.0888,521.4034" id="Stroke-253" stroke="#A8A9A5" stroke-width="3"></path>
                <path d="M372.682,381.7416 C357.312,345.1376 321.128,319.4306 278.941,319.4306 C222.816,319.4306 177.317,364.9296 177.317,421.0546 C177.317,436.2016 180.63,450.5746 186.572,463.4876" id="Stroke-255" stroke="#A8A9A5" stroke-width="3"></path>
                <path d="M211.9906,459.9432 C205.3226,448.5072 201.5006,435.2192 201.5006,421.0552 C201.5006,378.3542 236.2406,343.6142 278.9406,343.6142 C307.7536,343.6142 332.9406,359.4312 346.2776,382.8382" id="Stroke-257" stroke="#A8A9A5" stroke-width="0.75" stroke-linecap="round"></path>
                <path d="M348.3197,455.4423 C335.6317,480.9373 309.2987,498.4953 278.9407,498.4953 C271.8687,498.4953 265.0137,497.5423 258.5007,495.7573" id="Stroke-259" stroke="#A8A9A5" stroke-width="0.75" stroke-linecap="round"></path>
                <path d="M353.7406,400.9696 C355.4626,407.3776 356.3816,414.1116 356.3816,421.0546 C356.3816,426.3926 355.8386,431.6066 354.8046,436.6426" id="Stroke-261" stroke="#A8A9A5" stroke-width="0.75" stroke-linecap="round"></path>
                <path d="M278.9408,469.4745 C252.2428,469.4745 230.5218,447.7535 230.5218,421.0555 C230.5218,394.3565 252.2428,372.6355 278.9408,372.6355 C305.6398,372.6355 327.3608,394.3565 327.3608,421.0555 C327.3608,447.7535 305.6398,469.4745 278.9408,469.4745 Z" id="Stroke-263" stroke="#A8A9A5" stroke-width="3"></path>
                <path d="M278.9408,454.9637 C260.2448,454.9637 245.0328,439.7517 245.0328,421.0547 C245.0328,402.3577 260.2448,387.1467 278.9408,387.1467 C297.6378,387.1467 312.8498,402.3577 312.8498,421.0547 C312.8498,439.7517 297.6378,454.9637 278.9408,454.9637 Z" id="Stroke-265" stroke="#A8A9A5" stroke-width="3"></path>
                <mask id="mask-2" fill="white">
                    <use xlink:href="#path-1"></use>
                </mask>
                <g id="Clip-268"></g>
                <polygon id="Stroke-267" stroke="#A8A9A5" stroke-width="3" mask="url(#mask-2)" points="330.839 401.334 390.784 401.334 390.784 382.84 330.839 382.84"></polygon>
                <path d="M391.6234,469.2001 L391.6234,371.6261" id="Stroke-269" stroke="#A8A9A5" stroke-width="3" mask="url(#mask-2)"></path>
                <polygon id="Stroke-270" stroke="#A8A9A5" stroke-width="3" mask="url(#mask-2)" points="384.059 371.626 416.38 371.626 416.38 354.778 384.059 354.778"></polygon>
                <polygon id="Stroke-271" stroke="#A8A9A5" stroke-width="3" mask="url(#mask-2)" points="384.059 486.048 416.38 486.048 416.38 469.2 384.059 469.2"></polygon>
                <polyline id="Stroke-272" stroke="#A8A9A5" stroke-width="2" mask="url(#mask-2)" points="408.472 486.0477 408.472 497.4727 391.623 497.4727 391.623 487.0247"></polyline>
                <path d="M408.472,371.6259 L408.472,469.1999" id="Stroke-273" stroke="#A8A9A5" stroke-width="3" mask="url(#mask-2)"></path>
                <polyline id="Stroke-274" stroke="#A8A9A5" stroke-width="2" mask="url(#mask-2)" points="391.6234 354.7777 391.6234 345.3457 408.4724 345.3457 408.4724 354.7777"></polyline>
                <polygon id="Stroke-275" stroke="#A8A9A5" stroke-width="3" mask="url(#mask-2)" points="330.839 456.019 390.784 456.019 390.784 437.525 330.839 437.525"></polygon>
                <path d="M278.9408,426.9403 C275.6958,426.9403 273.0558,424.3003 273.0558,421.0553 C273.0558,417.8103 275.6958,415.1693 278.9408,415.1693 C282.1868,415.1693 284.8268,417.8103 284.8268,421.0553 C284.8268,424.3003 282.1868,426.9403 278.9408,426.9403 Z M312.8498,424.9693 L312.8498,417.2913 L291.9618,417.2913 C291.6978,416.3773 291.3458,415.5003 290.9048,414.6763 L305.7118,399.8673 L300.2838,394.4383 L285.5198,409.2023 C284.6598,408.7233 283.7418,408.3373 282.7808,408.0533 L282.7808,387.1463 L275.1018,387.1463 L275.1018,408.0533 C274.1528,408.3343 273.2468,408.7113 272.3958,409.1823 L257.5988,394.3853 L252.1698,399.8153 L266.9958,414.6403 C266.5448,415.4743 266.1878,416.3633 265.9198,417.2913 L244.8818,417.2913 L244.8818,424.9693 L265.9588,424.9693 C266.2408,425.9043 266.6218,426.7943 267.0878,427.6323 L252.2218,442.4993 L257.6518,447.9283 L272.5618,433.0183 C273.3638,433.4473 274.2138,433.7943 275.1018,434.0563 L275.1018,455.1153 L282.7808,455.1153 L282.7808,434.0563 C283.6808,433.7913 284.5448,433.4393 285.3558,433.0013 L300.2298,447.8763 L305.6598,442.4463 L290.8138,427.6003 C291.2718,426.7723 291.6448,425.8913 291.9238,424.9693 L312.8498,424.9693 Z" id="Stroke-276" stroke="#A8A9A5" mask="url(#mask-2)"></path>
                <path d="M369.889,534.1483 C369.889,546.9783 360.776,557.3793 349.534,557.3793 C338.291,557.3793 329.178,546.9783 329.178,534.1483 C329.178,521.3173 338.291,510.9173 349.534,510.9173 C360.776,510.9173 369.889,521.3173 369.889,534.1483 Z" id="Stroke-277" stroke="#57B897" stroke-width="0.5" mask="url(#mask-2)"></path>
                <path d="M352.9564,536.8036 C352.4304,536.2956 351.7974,535.9116 351.0564,535.6526 L351.0564,542.5556 C351.9404,542.2956 352.6094,541.8416 353.0644,541.1926 C353.5184,540.5436 353.7464,539.7946 353.7464,538.9456 C353.7464,538.0246 353.4824,537.3106 352.9564,536.8036 L352.9564,536.8036 Z M350.4544,535.4756 C350.1534,535.3586 349.8644,535.2636 349.5874,535.1926 C349.3094,535.1216 349.0194,535.0506 348.7194,534.9806 L348.7194,542.7326 C348.8354,542.7566 348.9504,542.7686 349.0654,542.7686 L349.4474,542.7686 C349.6324,542.7686 349.8114,542.7626 349.9854,542.7506 C350.1584,542.7386 350.3144,542.7206 350.4544,542.6976 L350.4544,535.4756 Z M350.4544,524.7496 C350.3374,524.7266 350.1984,524.7086 350.0374,524.6966 C349.8754,524.6846 349.7134,524.6786 349.5524,524.6786 C349.4124,524.6786 349.2684,524.6846 349.1184,524.6966 C348.9684,524.7086 348.8354,524.7266 348.7194,524.7496 L348.7194,531.8656 C349.2974,532.0546 349.8754,532.2316 350.4544,532.3956 L350.4544,524.7496 Z M348.1174,524.8556 C347.3144,525.0916 346.6844,525.4986 346.2244,526.0766 C345.7634,526.6556 345.5334,527.3926 345.5334,528.2886 C345.5334,529.1866 345.7744,529.9006 346.2594,530.4306 C346.7424,530.9616 347.3624,531.3816 348.1174,531.6886 L348.1174,524.8556 Z M355.0284,541.3696 C354.0184,542.3246 352.6934,542.9086 351.0564,543.1216 L351.0914,548.1846 L350.4194,548.1846 L350.4544,543.1936 C350.2924,543.2156 350.1294,543.2286 349.9684,543.2286 L349.4824,543.2286 L348.7194,543.2286 L348.7554,548.1846 L348.0824,548.1846 L348.1174,543.1576 C346.4184,543.0396 345.0604,542.6156 344.0464,541.8826 C343.0314,541.1526 342.5234,540.1836 342.5234,538.9806 C342.5234,538.4846 342.7014,538.0546 343.0554,537.6886 C343.4094,537.3226 343.8224,537.1396 344.2944,537.1396 C344.6944,537.1396 345.0434,537.2576 345.3394,537.4926 C345.6344,537.7296 345.8284,538.0246 345.9234,538.3786 C345.8524,538.5676 345.7994,538.7496 345.7634,538.9266 C345.7274,539.1046 345.7104,539.3226 345.7104,539.5816 C345.7104,540.2896 345.8754,540.9336 346.2054,541.5116 C346.5364,542.0896 347.1734,542.4736 348.1174,542.6616 L348.1174,534.8026 C347.8574,534.7326 347.5924,534.6436 347.3214,534.5366 C347.0494,534.4316 346.8314,534.3556 346.6664,534.3076 C345.6044,533.9066 344.7134,533.3106 343.9934,532.5196 C343.2724,531.7296 342.9134,530.7556 342.9134,529.5996 C342.9134,528.8446 343.0494,528.1656 343.3204,527.5636 C343.5924,526.9616 343.9584,526.4376 344.4184,525.9886 C344.8784,525.5406 345.4274,525.1746 346.0634,524.8916 C346.7014,524.6086 347.3864,524.4076 348.1174,524.2886 L348.0824,520.1126 L348.7554,520.1126 L348.7194,524.2186 C348.8574,524.1956 348.9964,524.1836 349.1354,524.1836 L349.5864,524.1836 L350.0034,524.1836 C350.1644,524.1836 350.3144,524.1956 350.4544,524.2186 L350.4194,520.1126 L351.0914,520.1126 L351.0564,524.2886 C352.4724,524.4786 353.6574,524.9266 354.6134,525.6346 C355.5694,526.3426 356.0474,527.2756 356.0474,528.4316 C356.0474,528.9266 355.8824,529.3576 355.5514,529.7236 C355.2214,530.0896 354.8084,530.2716 354.3124,530.2716 C353.9114,530.2716 353.5744,530.1546 353.3044,529.9176 C353.0324,529.6826 352.8494,529.3866 352.7554,529.0326 C352.8264,528.8446 352.8794,528.6606 352.9144,528.4846 C352.9494,528.3066 352.9674,528.0886 352.9674,527.8286 C352.9674,527.1456 352.8194,526.5316 352.5244,525.9886 C352.2294,525.4466 351.7394,525.0686 351.0564,524.8556 L351.0564,532.5376 C351.3164,532.6316 351.5494,532.7146 351.7504,532.7846 C351.9524,532.8566 352.1844,532.9266 352.4454,532.9976 C353.7274,533.3996 354.7314,534.0186 355.4554,534.8566 C356.1814,535.6946 356.5434,536.7146 356.5434,537.9176 C356.5434,539.2636 356.0374,540.4136 355.0284,541.3696 L355.0284,541.3696 Z" id="Fill-278" fill="#57B897" mask="url(#mask-2)"></path>
                <path d="M404.8089,558.6122 C367.7269,549.0102 331.3329,568.2122 294.2579,558.6122 C294.6229,542.2852 294.9879,525.9582 295.3529,509.6302 C331.6939,519.0402 367.3669,500.2182 403.7139,509.6302 C404.0789,525.9582 404.4449,542.2852 404.8089,558.6122 Z" id="Stroke-279" stroke="#57B897" mask="url(#mask-2)"></path>
                <path d="M398.804,563.9921 C363.729,556.2141 328.304,575.6231 288.253,562.8461 C288.532,550.4161 288.809,544.8251 289.086,532.3951" id="Stroke-280" stroke="#57B897" stroke-linecap="round" mask="url(#mask-2)"></path>
                <path d="M182.14,563.9921 C164.099,554.9481 151.715,536.2851 151.715,514.7301 C151.715,484.3151 176.371,459.6591 206.786,459.6591 C237.202,459.6591 261.858,484.3151 261.858,514.7301 C261.858,529.1081 256.347,542.1991 247.324,552.0081" id="Stroke-281" stroke="#57B897" mask="url(#mask-2)"></path>
                <path d="M244.1478,514.6434 C244.1478,535.2784 227.4198,552.0054 206.7868,552.0054 C186.1518,552.0054 169.4238,535.2784 169.4238,514.6434 C169.4238,494.0084 186.1518,477.2814 206.7868,477.2814 C227.4198,477.2814 244.1478,494.0084 244.1478,514.6434 Z" id="Stroke-282" stroke="#57B897" stroke-width="0.5" stroke-linecap="round" mask="url(#mask-2)"></path>
                <path d="M213.0023,519.4647 C212.0463,518.5427 210.8963,517.8467 209.5513,517.3747 L209.5513,529.9087 C211.1573,529.4387 212.3723,528.6137 213.1973,527.4347 C214.0223,526.2567 214.4363,524.8957 214.4363,523.3537 C214.4363,521.6817 213.9573,520.3857 213.0023,519.4647 L213.0023,519.4647 Z M208.4573,517.0537 C207.9113,516.8397 207.3873,516.6677 206.8833,516.5397 C206.3793,516.4107 205.8543,516.2817 205.3083,516.1527 L205.3083,530.2307 C205.5183,530.2747 205.7283,530.2947 205.9373,530.2947 L206.6313,530.2947 C206.9663,530.2947 207.2913,530.2847 207.6063,530.2637 C207.9223,530.2417 208.2053,530.2097 208.4573,530.1657 L208.4573,517.0537 Z M208.4573,497.5767 C208.2463,497.5347 207.9943,497.5027 207.7013,497.4817 C207.4073,497.4597 207.1133,497.4487 206.8193,497.4487 C206.5663,497.4487 206.3063,497.4597 206.0323,497.4817 C205.7593,497.5027 205.5183,497.5347 205.3083,497.5767 L205.3083,510.4967 C206.3573,510.8407 207.4073,511.1617 208.4573,511.4617 L208.4573,497.5767 Z M204.2153,497.7707 C202.7583,498.1987 201.6123,498.9387 200.7763,499.9877 C199.9403,501.0377 199.5233,502.3777 199.5233,504.0047 C199.5233,505.6337 199.9613,506.9297 200.8403,507.8947 C201.7183,508.8587 202.8443,509.6197 204.2153,510.1767 L204.2153,497.7707 Z M216.7633,527.7557 C214.9293,529.4907 212.5243,530.5517 209.5513,530.9387 L209.6143,540.1297 L208.3943,540.1297 L208.4573,531.0667 C208.1633,531.1087 207.8683,531.1307 207.5753,531.1307 L206.6943,531.1307 L205.3083,531.1307 L205.3723,540.1297 L204.1513,540.1297 L204.2153,531.0017 C201.1303,530.7877 198.6653,530.0167 196.8223,528.6887 C194.9813,527.3607 194.0593,525.6027 194.0593,523.4167 C194.0593,522.5177 194.3813,521.7357 195.0233,521.0707 C195.6653,520.4067 196.4163,520.0747 197.2733,520.0747 C198.0013,520.0747 198.6333,520.2897 199.1693,520.7177 C199.7053,521.1467 200.0593,521.6817 200.2303,522.3237 C200.1023,522.6677 200.0053,522.9987 199.9403,523.3197 C199.8763,523.6427 199.8443,524.0387 199.8443,524.5097 C199.8443,525.7957 200.1443,526.9637 200.7433,528.0137 C201.3433,529.0637 202.5003,529.7597 204.2153,530.1027 L204.2153,515.8327 C203.7433,515.7037 203.2613,515.5427 202.7703,515.3507 C202.2753,515.1577 201.8793,515.0197 201.5793,514.9327 C199.6513,514.2047 198.0333,513.1227 196.7273,511.6867 C195.4193,510.2517 194.7663,508.4837 194.7663,506.3837 C194.7663,505.0127 195.0133,503.7797 195.5053,502.6877 C195.9973,501.5947 196.6623,500.6417 197.4983,499.8267 C198.3333,499.0137 199.3303,498.3487 200.4863,497.8347 C201.6443,497.3197 202.8873,496.9567 204.2153,496.7417 L204.1513,489.1567 L205.3723,489.1567 L205.3083,496.6127 C205.5593,496.5707 205.8113,496.5487 206.0633,496.5487 L206.8823,496.5487 L207.6383,496.5487 C207.9313,496.5487 208.2043,496.5707 208.4573,496.6127 L208.3943,489.1567 L209.6143,489.1567 L209.5513,496.7417 C212.1213,497.0847 214.2743,497.8987 216.0103,499.1847 C217.7453,500.4707 218.6133,502.1627 218.6133,504.2627 C218.6133,505.1617 218.3143,505.9447 217.7133,506.6087 C217.1123,507.2737 216.3633,507.6047 215.4643,507.6047 C214.7343,507.6047 214.1233,507.3907 213.6323,506.9627 C213.1393,506.5337 212.8073,505.9977 212.6363,505.3557 C212.7653,505.0127 212.8603,504.6797 212.9253,504.3597 C212.9893,504.0367 213.0213,503.6417 213.0213,503.1697 C213.0213,501.9277 212.7533,500.8137 212.2173,499.8267 C211.6823,498.8417 210.7923,498.1557 209.5513,497.7707 L209.5513,511.7187 C210.0243,511.8907 210.4453,512.0397 210.8123,512.1687 C211.1793,512.2977 211.5993,512.4257 212.0733,512.5547 C214.4013,513.2827 216.2253,514.4077 217.5393,515.9287 C218.8563,517.4497 219.5143,519.3037 219.5143,521.4887 C219.5143,523.9317 218.5963,526.0207 216.7633,527.7557 L216.7633,527.7557 Z" id="Fill-283" fill="#57B897" mask="url(#mask-2)"></path>
                <path d="M147.4857,560.2216 C146.1037,559.6196 144.7107,558.9546 143.3057,558.2206" id="Stroke-284" stroke="#57B897" stroke-linecap="round" mask="url(#mask-2)"></path>
                <path d="M262.683,556.4725 C222.881,538.6975 192.13,574.6795 153.251,562.3835" id="Stroke-285" stroke="#57B897" stroke-linecap="round" mask="url(#mask-2)"></path>
                <path d="M266.2914,558.2206 C265.8814,558.0056 265.4714,557.7976 265.0624,557.5946" id="Stroke-286" stroke="#57B897" stroke-linecap="round" mask="url(#mask-2)"></path>
                <path d="M372.5863,456.5663 C363.4053,480.7603 344.8053,500.6233 321.4253,511.8073 L321.8133,512.2663 C323.2583,512.1933 325.7603,512.0633 327.6663,511.9633 C349.6523,500.1833 366.5043,481.0513 375.3913,457.6303 L372.5863,456.5663 Z" id="Fill-287" fill="#A8A9A5" mask="url(#mask-2)"></path>
            </g>
        </g>
    </g>
</svg>