<?xml version="1.0" encoding="UTF-8"?>
<svg width="275px" height="251px" viewBox="0 0 275 251" version="1.1" xmlns="http://www.w3.org/2000/svg" xmlns:xlink="http://www.w3.org/1999/xlink">
    <!-- Generator: Sketch 55 (78076) - https://sketchapp.com -->
    <title>Group 288</title>
    <desc>Created with Sketch.</desc>
    <g id="Social-Content" stroke="none" stroke-width="1" fill="none" fill-rule="evenodd">
        <g id="Artboard-3" transform="translate(-181.000000, -372.000000)">
            <g id="Group-288" transform="translate(181.000000, 374.000000)">
                <path d="M236.2376,118.5253 C237.1116,113.1653 237.5656,107.6633 237.5656,102.0553 C237.5656,95.3073 236.9076,88.7133 235.6536,82.3343" id="Stroke-251" stroke="#A8A9A5" stroke-width="3"></path>
                <path d="M118.4808,202.1854 C124.1538,203.1674 129.9878,203.6794 135.9408,203.6794 C141.4368,203.6794 146.8308,203.2434 152.0888,202.4034" id="Stroke-253" stroke="#A8A9A5" stroke-width="3"></path>
                <path d="M229.682,62.7416 C214.312,26.1376 178.128,0.4306 135.941,0.4306 C79.816,0.4306 34.317,45.9296 34.317,102.0546 C34.317,117.2016 37.63,131.5746 43.572,144.4876" id="Stroke-255" stroke="#A8A9A5" stroke-width="3"></path>
                <path d="M68.9906,140.9432 C62.3226,129.5072 58.5006,116.2192 58.5006,102.0552 C58.5006,59.3542 93.2406,24.6142 135.9406,24.6142 C164.7536,24.6142 189.9406,40.4312 203.2776,63.8382" id="Stroke-257" stroke="#A8A9A5" stroke-width="0.75" stroke-linecap="round"></path>
                <path d="M205.3197,136.4423 C192.6317,161.9373 166.2987,179.4953 135.9407,179.4953 C128.8687,179.4953 122.0137,178.5423 115.5007,176.7573" id="Stroke-259" stroke="#A8A9A5" stroke-width="0.75" stroke-linecap="round"></path>
                <path d="M210.7406,81.9696 C212.4626,88.3776 213.3816,95.1116 213.3816,102.0546 C213.3816,107.3926 212.8386,112.6066 211.8046,117.6426" id="Stroke-261" stroke="#A8A9A5" stroke-width="0.75" stroke-linecap="round"></path>
                <path d="M135.9408,150.4745 C109.2428,150.4745 87.5218,128.7535 87.5218,102.0555 C87.5218,75.3565 109.2428,53.6355 135.9408,53.6355 C162.6398,53.6355 184.3608,75.3565 184.3608,102.0555 C184.3608,128.7535 162.6398,150.4745 135.9408,150.4745 Z" id="Stroke-263" stroke="#A8A9A5" stroke-width="3"></path>
                <path d="M135.9408,135.9637 C117.2448,135.9637 102.0328,120.7517 102.0328,102.0547 C102.0328,83.3577 117.2448,68.1467 135.9408,68.1467 C154.6378,68.1467 169.8498,83.3577 169.8498,102.0547 C169.8498,120.7517 154.6378,135.9637 135.9408,135.9637 Z" id="Stroke-265" stroke="#A8A9A5" stroke-width="3"></path>
                <polygon id="Stroke-267" stroke="#A8A9A5" stroke-width="3" points="187.839 82.334 247.784 82.334 247.784 63.84 187.839 63.84"></polygon>
                <polygon id="Stroke-270" stroke="#A8A9A5" stroke-width="3" points="241.059 52.626 273.38 52.626 273.38 35.778 241.059 35.778"></polygon>
                <polygon id="Stroke-271" stroke="#A8A9A5" stroke-width="3" points="241.059 167.048 273.38 167.048 273.38 150.2 241.059 150.2"></polygon>
                <polyline id="Stroke-272" stroke="#A8A9A5" stroke-width="2" points="265.472 167.0477 265.472 178.4727 248.623 178.4727 248.623 168.0247"></polyline>
                <polyline id="Stroke-274" stroke="#A8A9A5" stroke-width="2" points="248.6234 35.7777 248.6234 26.3457 265.4724 26.3457 265.4724 35.7777"></polyline>
                <polygon id="Stroke-275" stroke="#A8A9A5" stroke-width="3" points="187.839 137.019 247.784 137.019 247.784 118.525 187.839 118.525"></polygon>
                <path d="M135.9408,107.9403 C132.6958,107.9403 130.0558,105.3003 130.0558,102.0553 C130.0558,98.8103 132.6958,96.1693 135.9408,96.1693 C139.1868,96.1693 141.8268,98.8103 141.8268,102.0553 C141.8268,105.3003 139.1868,107.9403 135.9408,107.9403 Z M169.8498,105.9693 L169.8498,98.2913 L148.9618,98.2913 C148.6978,97.3773 148.3458,96.5003 147.9048,95.6763 L162.7118,80.8673 L157.2838,75.4383 L142.5198,90.2023 C141.6598,89.7233 140.7418,89.3373 139.7808,89.0533 L139.7808,68.1463 L132.1018,68.1463 L132.1018,89.0533 C131.1528,89.3343 130.2468,89.7113 129.3958,90.1823 L114.5988,75.3853 L109.1698,80.8153 L123.9958,95.6403 C123.5448,96.4743 123.1878,97.3633 122.9198,98.2913 L101.8818,98.2913 L101.8818,105.9693 L122.9588,105.9693 C123.2408,106.9043 123.6218,107.7943 124.0878,108.6323 L109.2218,123.4993 L114.6518,128.9283 L129.5618,114.0183 C130.3638,114.4473 131.2138,114.7943 132.1018,115.0563 L132.1018,136.1153 L139.7808,136.1153 L139.7808,115.0563 C140.6808,114.7913 141.5448,114.4393 142.3558,114.0013 L157.2298,128.8763 L162.6598,123.4463 L147.8138,108.6003 C148.2718,107.7723 148.6448,106.8913 148.9238,105.9693 L169.8498,105.9693 Z" id="Stroke-276" stroke="#A8A9A5"></path>
                <path d="M226.889,215.1483 C226.889,227.9783 217.776,238.3793 206.534,238.3793 C195.291,238.3793 186.178,227.9783 186.178,215.1483 C186.178,202.3173 195.291,191.9173 206.534,191.9173 C217.776,191.9173 226.889,202.3173 226.889,215.1483 Z" id="Stroke-277" stroke="#57B897" stroke-width="0.5"></path>
                <path d="M209.9564,217.8036 C209.4304,217.2956 208.7974,216.9116 208.0564,216.6526 L208.0564,223.5556 C208.9404,223.2956 209.6094,222.8416 210.0644,222.1926 C210.5184,221.5436 210.7464,220.7946 210.7464,219.9456 C210.7464,219.0246 210.4824,218.3106 209.9564,217.8036 L209.9564,217.8036 Z M207.4544,216.4756 C207.1534,216.3586 206.8644,216.2636 206.5874,216.1926 C206.3094,216.1216 206.0194,216.0506 205.7194,215.9806 L205.7194,223.7326 C205.8354,223.7566 205.9504,223.7686 206.0654,223.7686 L206.4474,223.7686 C206.6324,223.7686 206.8114,223.7626 206.9854,223.7506 C207.1584,223.7386 207.3144,223.7206 207.4544,223.6976 L207.4544,216.4756 Z M207.4544,205.7496 C207.3374,205.7266 207.1984,205.7086 207.0374,205.6966 C206.8754,205.6846 206.7134,205.6786 206.5524,205.6786 C206.4124,205.6786 206.2684,205.6846 206.1184,205.6966 C205.9684,205.7086 205.8354,205.7266 205.7194,205.7496 L205.7194,212.8656 C206.2974,213.0546 206.8754,213.2316 207.4544,213.3956 L207.4544,205.7496 Z M205.1174,205.8556 C204.3144,206.0916 203.6844,206.4986 203.2244,207.0766 C202.7634,207.6556 202.5334,208.3926 202.5334,209.2886 C202.5334,210.1866 202.7744,210.9006 203.2594,211.4306 C203.7424,211.9616 204.3624,212.3816 205.1174,212.6886 L205.1174,205.8556 Z M212.0284,222.3696 C211.0184,223.3246 209.6934,223.9086 208.0564,224.1216 L208.0914,229.1846 L207.4194,229.1846 L207.4544,224.1936 C207.2924,224.2156 207.1294,224.2286 206.9684,224.2286 L206.4824,224.2286 L205.7194,224.2286 L205.7554,229.1846 L205.0824,229.1846 L205.1174,224.1576 C203.4184,224.0396 202.0604,223.6156 201.0464,222.8826 C200.0314,222.1526 199.5234,221.1836 199.5234,219.9806 C199.5234,219.4846 199.7014,219.0546 200.0554,218.6886 C200.4094,218.3226 200.8224,218.1396 201.2944,218.1396 C201.6944,218.1396 202.0434,218.2576 202.3394,218.4926 C202.6344,218.7296 202.8284,219.0246 202.9234,219.3786 C202.8524,219.5676 202.7994,219.7496 202.7634,219.9266 C202.7274,220.1046 202.7104,220.3226 202.7104,220.5816 C202.7104,221.2896 202.8754,221.9336 203.2054,222.5116 C203.5364,223.0896 204.1734,223.4736 205.1174,223.6616 L205.1174,215.8026 C204.8574,215.7326 204.5924,215.6436 204.3214,215.5366 C204.0494,215.4316 203.8314,215.3556 203.6664,215.3076 C202.6044,214.9066 201.7134,214.3106 200.9934,213.5196 C200.2724,212.7296 199.9134,211.7556 199.9134,210.5996 C199.9134,209.8446 200.0494,209.1656 200.3204,208.5636 C200.5924,207.9616 200.9584,207.4376 201.4184,206.9886 C201.8784,206.5406 202.4274,206.1746 203.0634,205.8916 C203.7014,205.6086 204.3864,205.4076 205.1174,205.2886 L205.0824,201.1126 L205.7554,201.1126 L205.7194,205.2186 C205.8574,205.1956 205.9964,205.1836 206.1354,205.1836 L206.5864,205.1836 L207.0034,205.1836 C207.1644,205.1836 207.3144,205.1956 207.4544,205.2186 L207.4194,201.1126 L208.0914,201.1126 L208.0564,205.2886 C209.4724,205.4786 210.6574,205.9266 211.6134,206.6346 C212.5694,207.3426 213.0474,208.2756 213.0474,209.4316 C213.0474,209.9266 212.8824,210.3576 212.5514,210.7236 C212.2214,211.0896 211.8084,211.2716 211.3124,211.2716 C210.9114,211.2716 210.5744,211.1546 210.3044,210.9176 C210.0324,210.6826 209.8494,210.3866 209.7554,210.0326 C209.8264,209.8446 209.8794,209.6606 209.9144,209.4846 C209.9494,209.3066 209.9674,209.0886 209.9674,208.8286 C209.9674,208.1456 209.8194,207.5316 209.5244,206.9886 C209.2294,206.4466 208.7394,206.0686 208.0564,205.8556 L208.0564,213.5376 C208.3164,213.6316 208.5494,213.7146 208.7504,213.7846 C208.9524,213.8566 209.1844,213.9266 209.4454,213.9976 C210.7274,214.3996 211.7314,215.0186 212.4554,215.8566 C213.1814,216.6946 213.5434,217.7146 213.5434,218.9176 C213.5434,220.2636 213.0374,221.4136 212.0284,222.3696 L212.0284,222.3696 Z" id="Fill-278" fill="#57B897"></path>
                <path d="M261.8089,239.6122 C224.7269,230.0102 188.3329,249.2122 151.2579,239.6122 C151.6229,223.2852 151.9879,206.9582 152.3529,190.6302 C188.6939,200.0402 224.3669,181.2182 260.7139,190.6302 C261.0789,206.9582 261.4449,223.2852 261.8089,239.6122 Z" id="Stroke-279" stroke="#57B897"></path>
                <path d="M255.804,244.9921 C220.729,237.2141 185.304,256.6231 145.253,243.8461 C145.532,231.4161 145.809,225.8251 146.086,213.3951" id="Stroke-280" stroke="#57B897" stroke-linecap="round"></path>
                <path d="M39.14,244.9921 C21.099,235.9481 8.715,217.2851 8.715,195.7301 C8.715,165.3151 33.371,140.6591 63.786,140.6591 C94.202,140.6591 118.858,165.3151 118.858,195.7301 C118.858,210.1081 113.347,223.1991 104.324,233.0081" id="Stroke-281" stroke="#57B897"></path>
                <path d="M101.1478,195.6434 C101.1478,216.2784 84.4198,233.0054 63.7868,233.0054 C43.1518,233.0054 26.4238,216.2784 26.4238,195.6434 C26.4238,175.0084 43.1518,158.2814 63.7868,158.2814 C84.4198,158.2814 101.1478,175.0084 101.1478,195.6434 Z" id="Stroke-282" stroke="#57B897" stroke-width="0.5" stroke-linecap="round"></path>
                <path d="M70.0023,200.4647 C69.0463,199.5427 67.8963,198.8467 66.5513,198.3747 L66.5513,210.9087 C68.1573,210.4387 69.3723,209.6137 70.1973,208.4347 C71.0223,207.2567 71.4363,205.8957 71.4363,204.3537 C71.4363,202.6817 70.9573,201.3857 70.0023,200.4647 L70.0023,200.4647 Z M65.4573,198.0537 C64.9113,197.8397 64.3873,197.6677 63.8833,197.5397 C63.3793,197.4107 62.8543,197.2817 62.3083,197.1527 L62.3083,211.2307 C62.5183,211.2747 62.7283,211.2947 62.9373,211.2947 L63.6313,211.2947 C63.9663,211.2947 64.2913,211.2847 64.6063,211.2637 C64.9223,211.2417 65.2053,211.2097 65.4573,211.1657 L65.4573,198.0537 Z M65.4573,178.5767 C65.2463,178.5347 64.9943,178.5027 64.7013,178.4817 C64.4073,178.4597 64.1133,178.4487 63.8193,178.4487 C63.5663,178.4487 63.3063,178.4597 63.0323,178.4817 C62.7593,178.5027 62.5183,178.5347 62.3083,178.5767 L62.3083,191.4967 C63.3573,191.8407 64.4073,192.1617 65.4573,192.4617 L65.4573,178.5767 Z M61.2153,178.7707 C59.7583,179.1987 58.6123,179.9387 57.7763,180.9877 C56.9403,182.0377 56.5233,183.3777 56.5233,185.0047 C56.5233,186.6337 56.9613,187.9297 57.8403,188.8947 C58.7183,189.8587 59.8443,190.6197 61.2153,191.1767 L61.2153,178.7707 Z M73.7633,208.7557 C71.9293,210.4907 69.5243,211.5517 66.5513,211.9387 L66.6143,221.1297 L65.3943,221.1297 L65.4573,212.0667 C65.1633,212.1087 64.8683,212.1307 64.5753,212.1307 L63.6943,212.1307 L62.3083,212.1307 L62.3723,221.1297 L61.1513,221.1297 L61.2153,212.0017 C58.1303,211.7877 55.6653,211.0167 53.8223,209.6887 C51.9813,208.3607 51.0593,206.6027 51.0593,204.4167 C51.0593,203.5177 51.3813,202.7357 52.0233,202.0707 C52.6653,201.4067 53.4163,201.0747 54.2733,201.0747 C55.0013,201.0747 55.6333,201.2897 56.1693,201.7177 C56.7053,202.1467 57.0593,202.6817 57.2303,203.3237 C57.1023,203.6677 57.0053,203.9987 56.9403,204.3197 C56.8763,204.6427 56.8443,205.0387 56.8443,205.5097 C56.8443,206.7957 57.1443,207.9637 57.7433,209.0137 C58.3433,210.0637 59.5003,210.7597 61.2153,211.1027 L61.2153,196.8327 C60.7433,196.7037 60.2613,196.5427 59.7703,196.3507 C59.2753,196.1577 58.8793,196.0197 58.5793,195.9327 C56.6513,195.2047 55.0333,194.1227 53.7273,192.6867 C52.4193,191.2517 51.7663,189.4837 51.7663,187.3837 C51.7663,186.0127 52.0133,184.7797 52.5053,183.6877 C52.9973,182.5947 53.6623,181.6417 54.4983,180.8267 C55.3333,180.0137 56.3303,179.3487 57.4863,178.8347 C58.6443,178.3197 59.8873,177.9567 61.2153,177.7417 L61.1513,170.1567 L62.3723,170.1567 L62.3083,177.6127 C62.5593,177.5707 62.8113,177.5487 63.0633,177.5487 L63.8823,177.5487 L64.6383,177.5487 C64.9313,177.5487 65.2043,177.5707 65.4573,177.6127 L65.3943,170.1567 L66.6143,170.1567 L66.5513,177.7417 C69.1213,178.0847 71.2743,178.8987 73.0103,180.1847 C74.7453,181.4707 75.6133,183.1627 75.6133,185.2627 C75.6133,186.1617 75.3143,186.9447 74.7133,187.6087 C74.1123,188.2737 73.3633,188.6047 72.4643,188.6047 C71.7343,188.6047 71.1233,188.3907 70.6323,187.9627 C70.1393,187.5337 69.8073,186.9977 69.6363,186.3557 C69.7653,186.0127 69.8603,185.6797 69.9253,185.3597 C69.9893,185.0367 70.0213,184.6417 70.0213,184.1697 C70.0213,182.9277 69.7533,181.8137 69.2173,180.8267 C68.6823,179.8417 67.7923,179.1557 66.5513,178.7707 L66.5513,192.7187 C67.0243,192.8907 67.4453,193.0397 67.8123,193.1687 C68.1793,193.2977 68.5993,193.4257 69.0733,193.5547 C71.4013,194.2827 73.2253,195.4077 74.5393,196.9287 C75.8563,198.4497 76.5143,200.3037 76.5143,202.4887 C76.5143,204.9317 75.5963,207.0207 73.7633,208.7557 L73.7633,208.7557 Z" id="Fill-283" fill="#57B897"></path>
                <path d="M4.4857,241.2216 C3.1037,240.6196 1.7107,239.9546 0.3057,239.2206" id="Stroke-284" stroke="#57B897" stroke-linecap="round"></path>
                <path d="M119.683,237.4725 C79.881,219.6975 49.13,255.6795 10.251,243.3835" id="Stroke-285" stroke="#57B897" stroke-linecap="round"></path>
                <path d="M123.2914,239.2206 C122.8814,239.0056 122.4714,238.7976 122.0624,238.5946" id="Stroke-286" stroke="#57B897" stroke-linecap="round"></path>
                <path d="M229.5863,137.5663 C220.4053,161.7603 201.8053,181.6233 178.4253,192.8073 L178.8133,193.2663 C180.2583,193.1933 182.7603,193.0633 184.6663,192.9633 C206.6523,181.1833 223.5043,162.0513 232.3913,138.6303 L229.5863,137.5663 Z" id="Fill-287" fill="#A8A9A5"></path>
                <path d="M248.6234,150.2001 L248.6234,52.6261" id="Stroke-269" stroke="#A8A9A5" stroke-width="3"></path>
                <path d="M265.472,52.6259 L265.472,150.1999" id="Stroke-273" stroke="#A8A9A5" stroke-width="3"></path>
            </g>
        </g>
    </g>
</svg>